<?xml version="1.0" encoding="utf-8"?>
<!-- Generator: Adobe Illustrator 17.1.0, SVG Export Plug-In . SVG Version: 6.00 Build 0)  -->
<!DOCTYPE svg PUBLIC "-//W3C//DTD SVG 1.1//EN" "http://www.w3.org/Graphics/SVG/1.1/DTD/svg11.dtd">
<svg version="1.1" xmlns="http://www.w3.org/2000/svg" xmlns:xlink="http://www.w3.org/1999/xlink" x="0px" y="0px"
	 viewBox="0 0 512 512" enable-background="new 0 0 512 512" xml:space="preserve">
<g id="Layer_1">
	<g>
		<path fill-rule="evenodd" clip-rule="evenodd" d="M384.8,130.7c-6.3-6-16.1-5.9-22.2,0.3c0,0-166.6,171.9-197.6,205.6
			c0-51.2,0-102.5,0-153.7c0-0.9,0-1.8,0-2.7c23,24.3,46.9,48.4,70.4,72.8c7.5-7.2,21.7-22,21.7-22s-37.7-39.3-56.5-58.9
			c-9-9.3-18-18.7-26.9-28c-5.8-6.1-12.3-16.1-21-17.7c-9.9-1.8-18.3,3.7-20.2,13.7c-0.9,5.8-0.7,197.5-0.7,216
			c0,11.5-2.4,29.7,11.7,34.1c8.9,2.4,14.6-1.8,20.1-7.5c39.8-40.9,221.6-229.4,221.6-229.4C391.3,146.8,391.1,136.8,384.8,130.7z"
			/>
		<path fill-rule="evenodd" clip-rule="evenodd" d="M387,358.5c0,0-32.8-33.2-95.8-97c-3.8,3.7-18.9,18.6-22.6,22.3
			c63,63.8,95.9,97.1,95.9,97.1c6.2,6.2,16,6.8,22.2,0.5C392.8,375.2,393.2,364.7,387,358.5z"/>
	</g>
</g>
<g id="nyt_x5F_exporter_x5F_info" display="none">
</g>
</svg>
